<svg xmlns="http://www.w3.org/2000/svg" xmlns:xlink="http://www.w3.org/1999/xlink" width="1640" zoomAndPan="magnify" viewBox="0 0 1230 693.000001" height="924" preserveAspectRatio="xMidYMid meet" version="1.0"><defs><g/></defs><g fill="#4d8866" fill-opacity="1"><g transform="translate(414.293527, 374.833124)"><g><path d="M 41.015625 0 L 15.703125 -44.734375 C 16.203125 -40.390625 16.453125 -36.898438 16.453125 -34.265625 L 16.453125 0 L 5.640625 0 L 5.640625 -58.09375 L 19.546875 -58.09375 L 45.234375 -12.984375 C 44.734375 -17.140625 44.484375 -20.921875 44.484375 -24.328125 L 44.484375 -58.09375 L 55.28125 -58.09375 L 55.28125 0 Z M 41.015625 0 "/></g></g></g><g fill="#4d8866" fill-opacity="1"><g transform="translate(475.265414, 374.833124)"><g><path d="M 17.8125 -48.6875 L 17.8125 -30.71875 L 47.53125 -30.71875 L 47.53125 -21.3125 L 17.8125 -21.3125 L 17.8125 0 L 5.640625 0 L 5.640625 -58.09375 L 48.484375 -58.09375 L 48.484375 -48.6875 Z M 17.8125 -48.6875 "/></g></g></g><g fill="#4d8866" fill-opacity="1"><g transform="translate(526.837984, 374.833124)"><g><path d="M 31.875 -48.6875 L 31.875 0 L 19.703125 0 L 19.703125 -48.6875 L 0.953125 -48.6875 L 0.953125 -58.09375 L 50.671875 -58.09375 L 50.671875 -48.6875 Z M 31.875 -48.6875 "/></g></g></g><g fill="#4d8866" fill-opacity="1"><g transform="translate(578.410555, 374.833124)"><g><path d="M 4.90625 -58.09375 L 49.46875 -58.09375 L 49.46875 -48.6875 L 4.90625 -48.6875 Z M 50.921875 -9.40625 L 50.921875 0 L 3.46875 0 L 3.46875 -9.40625 Z M 44.53125 -34.09375 L 44.53125 -24.703125 L 9.859375 -24.703125 L 9.859375 -34.09375 Z M 44.53125 -34.09375 "/></g></g></g><g fill="#4d8866" fill-opacity="1"><g transform="translate(632.745199, 374.833124)"><g><path d="M 16.203125 0.828125 C 11.890625 0.828125 8.519531 -0.34375 6.09375 -2.6875 C 3.675781 -5.039062 2.46875 -8.347656 2.46875 -12.609375 C 2.46875 -17.234375 3.972656 -20.753906 6.984375 -23.171875 C 9.992188 -25.585938 14.359375 -26.820312 20.078125 -26.875 L 29.6875 -27.046875 L 29.6875 -29.3125 C 29.6875 -32.226562 29.175781 -34.394531 28.15625 -35.8125 C 27.144531 -37.226562 25.484375 -37.9375 23.171875 -37.9375 C 21.023438 -37.9375 19.445312 -37.445312 18.4375 -36.46875 C 17.4375 -35.488281 16.816406 -33.875 16.578125 -31.625 L 4.5 -32.203125 C 5.238281 -36.546875 7.222656 -39.835938 10.453125 -42.078125 C 13.679688 -44.316406 18.085938 -45.4375 23.671875 -45.4375 C 29.304688 -45.4375 33.644531 -44.046875 36.6875 -41.265625 C 39.738281 -38.492188 41.265625 -34.550781 41.265625 -29.4375 L 41.265625 -13.1875 C 41.265625 -10.6875 41.546875 -8.960938 42.109375 -8.015625 C 42.671875 -7.066406 43.613281 -6.59375 44.9375 -6.59375 C 45.820312 -6.59375 46.675781 -6.675781 47.5 -6.84375 L 47.5 -0.578125 C 46.8125 -0.410156 46.191406 -0.257812 45.640625 -0.125 C 45.085938 0.0078125 44.535156 0.117188 43.984375 0.203125 C 43.441406 0.285156 42.859375 0.351562 42.234375 0.40625 C 41.617188 0.46875 40.898438 0.5 40.078125 0.5 C 37.160156 0.5 35.007812 -0.210938 33.625 -1.640625 C 32.238281 -3.078125 31.40625 -5.179688 31.125 -7.953125 L 30.875 -7.953125 C 27.632812 -2.097656 22.742188 0.828125 16.203125 0.828125 Z M 29.6875 -20.65625 L 23.75 -20.578125 C 21.050781 -20.460938 19.140625 -20.164062 18.015625 -19.6875 C 16.890625 -19.207031 16.03125 -18.472656 15.4375 -17.484375 C 14.84375 -16.492188 14.546875 -15.171875 14.546875 -13.515625 C 14.546875 -11.398438 15.035156 -9.828125 16.015625 -8.796875 C 16.992188 -7.765625 18.289062 -7.25 19.90625 -7.25 C 21.726562 -7.25 23.382812 -7.742188 24.875 -8.734375 C 26.375 -9.722656 27.550781 -11.09375 28.40625 -12.84375 C 29.257812 -14.59375 29.6875 -16.441406 29.6875 -18.390625 Z M 29.6875 -20.65625 "/></g></g></g><g fill="#4d8866" fill-opacity="1"><g transform="translate(679.700573, 374.833124)"><g><path d="M 5.890625 0 L 5.890625 -34.140625 C 5.890625 -36.585938 5.851562 -38.628906 5.78125 -40.265625 C 5.71875 -41.898438 5.644531 -43.347656 5.5625 -44.609375 L 16.609375 -44.609375 C 16.691406 -44.117188 16.800781 -42.613281 16.9375 -40.09375 C 17.082031 -37.582031 17.15625 -35.914062 17.15625 -35.09375 L 17.3125 -35.09375 C 18.4375 -38.21875 19.4375 -40.421875 20.3125 -41.703125 C 21.195312 -42.984375 22.242188 -43.929688 23.453125 -44.546875 C 24.671875 -45.160156 26.1875 -45.46875 28 -45.46875 C 29.476562 -45.46875 30.671875 -45.265625 31.578125 -44.859375 L 31.578125 -35.171875 C 29.710938 -35.578125 28.066406 -35.78125 26.640625 -35.78125 C 23.753906 -35.78125 21.503906 -34.613281 19.890625 -32.28125 C 18.285156 -29.945312 17.484375 -26.484375 17.484375 -21.890625 L 17.484375 0 Z M 5.890625 0 "/></g></g></g><g fill="#4d8866" fill-opacity="1"><g transform="translate(712.556961, 374.833124)"><g><path d="M 17.3125 0.734375 C 13.90625 0.734375 11.28125 -0.191406 9.4375 -2.046875 C 7.59375 -3.898438 6.671875 -6.707031 6.671875 -10.46875 L 6.671875 -36.78125 L 1.03125 -36.78125 L 1.03125 -44.609375 L 7.25 -44.609375 L 10.890625 -55.078125 L 18.140625 -55.078125 L 18.140625 -44.609375 L 26.59375 -44.609375 L 26.59375 -36.78125 L 18.140625 -36.78125 L 18.140625 -13.609375 C 18.140625 -11.429688 18.550781 -9.828125 19.375 -8.796875 C 20.195312 -7.765625 21.476562 -7.25 23.21875 -7.25 C 24.125 -7.25 25.414062 -7.441406 27.09375 -7.828125 L 27.09375 -0.65625 C 24.226562 0.269531 20.96875 0.734375 17.3125 0.734375 Z M 17.3125 0.734375 "/></g></g></g><g fill="#4d8866" fill-opacity="1"><g transform="translate(740.672448, 374.833124)"><g><path d="M 17.3125 -35.703125 C 18.882812 -39.109375 20.847656 -41.582031 23.203125 -43.125 C 25.566406 -44.664062 28.390625 -45.4375 31.671875 -45.4375 C 36.390625 -45.4375 40.015625 -43.976562 42.546875 -41.0625 C 45.078125 -38.144531 46.34375 -33.882812 46.34375 -28.28125 L 46.34375 0 L 34.796875 0 L 34.796875 -24.984375 C 34.796875 -32.816406 32.144531 -36.734375 26.84375 -36.734375 C 24.039062 -36.734375 21.78125 -35.53125 20.0625 -33.125 C 18.34375 -30.71875 17.484375 -27.632812 17.484375 -23.875 L 17.484375 0 L 5.890625 0 L 5.890625 -61.1875 L 17.484375 -61.1875 L 17.484375 -44.484375 C 17.484375 -41.492188 17.375 -38.566406 17.15625 -35.703125 Z M 17.3125 -35.703125 "/></g></g></g><g fill="#4d8866" fill-opacity="1"><g transform="translate(792.240322, 374.833124)"><g/></g></g></svg>